<?xml version="1.0" encoding="utf-8"?>
<!-- Generator: Adobe Illustrator 22.1.0, SVG Export Plug-In . SVG Version: 6.00 Build 0)  -->
<svg version="1.1" id="Layer_1" xmlns="http://www.w3.org/2000/svg" xmlns:xlink="http://www.w3.org/1999/xlink" x="0px" y="0px"
	 viewBox="0 0 5000 1868.5" style="enable-background:new 0 0 5000 1868.5;" xml:space="preserve">
<style type="text/css">
	.st0{fill:#F7931E;}
</style>
<path class="st0" d="M4065.9,581.3l-107.4,276.3h-245.6l203.5,149.8l-80.4,279.9l230.2-184.2l230.2,184.2l-80.7-280.3l203.5-149.5
	h-245.6l-107.4-276.3H4065.9z M3283.2,581.3l-107.4,276.3h-245.6l203.2,149.8l-80.4,279.9l230.2-184.2l230.2,184.2l-80.7-280.3
	l203.5-149.5h-245.6L3283.2,581.3z M2500.2,581.3l-107.4,276.3h-245.6l203.2,149.8l-80.1,279.9l230.2-184.2l230.2,184.2l-80.7-280.3
	l203.5-149.5h-245.6l-107.4-276.3H2500.2z M1716.8,581.3l-107.4,276.3h-245.6l203.5,149.8l-80.7,279.9l230.2-184.2l230.2,184.2
	l-80.4-280.3l203.2-149.5h-245.6L1716.8,581.3z M933.8,581.3L826.3,857.5H580.8l203.5,149.8l-80.7,279.9l230.2-184.2l230.2,184.2
	l-80.4-280.3l203.2-149.5h-245.6L933.8,581.3L933.8,581.3z"/>
</svg>
